<svg width="786" height="558" viewBox="0 0 786 558" fill="none" xmlns="http://www.w3.org/2000/svg">
<g clip-path="url(#clip0)">
<rect width="785.47" height="557.74" fill="white"/>
<path d="M95.4 509.15C100.99 509.15 105.53 504.62 105.53 499.02C105.53 493.43 101 488.89 95.4 488.89C89.81 488.89 85.27 493.42 85.27 499.02C85.27 504.62 89.8 509.15 95.4 509.15ZM95.4 494.27C98.03 494.27 100.16 496.4 100.16 499.03C100.16 501.66 98.03 503.79 95.4 503.79C92.77 503.79 90.64 501.66 90.64 499.03C90.64 496.4 92.77 494.27 95.4 494.27Z" fill="#A3923A"/>
<path d="M129.24 509.15C134.83 509.15 139.37 504.62 139.37 499.02C139.37 493.43 134.84 488.89 129.24 488.89C123.65 488.89 119.11 493.42 119.11 499.02C119.11 504.62 123.65 509.15 129.24 509.15ZM129.24 494.27C131.87 494.27 134 496.4 134 499.03C134 501.66 131.87 503.79 129.24 503.79C126.61 503.79 124.48 501.66 124.48 499.03C124.49 496.4 126.61 494.27 129.24 494.27Z" fill="#A3923A"/>
<path d="M467.457 58.1104C472.543 55.9884 474.947 50.1444 472.825 45.0576C470.703 39.9708 464.859 37.5673 459.772 39.6894C454.685 41.8114 452.282 47.6553 454.404 52.7422C456.526 57.829 462.37 60.2325 467.457 58.1104Z" fill="#0D0B5E"/>
<path d="M572.42 31.92C563.05 31.92 555.45 39.52 555.45 48.89C555.45 58.26 563.05 65.86 572.42 65.86C581.79 65.86 589.39 58.26 589.39 48.89C589.39 39.52 581.79 31.92 572.42 31.92ZM572.42 56.99C567.95 56.99 564.33 53.37 564.33 48.9C564.33 44.43 567.95 40.81 572.42 40.81C576.89 40.81 580.51 44.43 580.51 48.9C580.51 53.37 576.89 56.99 572.42 56.99Z" fill="#0D0B5E"/>
<path d="M611.48 39.04C606.04 39.04 601.63 43.45 601.63 48.89C601.63 54.33 606.04 58.74 611.48 58.74C616.92 58.74 621.33 54.33 621.33 48.89C621.33 43.45 616.92 39.04 611.48 39.04ZM611.48 51.55C610.01 51.55 608.82 50.36 608.82 48.89C608.82 47.42 610.01 46.23 611.48 46.23C612.95 46.23 614.14 47.42 614.14 48.89C614.14 50.36 612.95 51.55 611.48 51.55Z" fill="#A3923A"/>
<path d="M534.71 40.16C529.88 40.16 525.97 44.07 525.97 48.9C525.97 53.73 529.88 57.64 534.71 57.64C539.54 57.64 543.45 53.73 543.45 48.9C543.45 44.07 539.54 40.16 534.71 40.16ZM534.71 53.06C532.41 53.06 530.54 51.19 530.54 48.89C530.54 46.59 532.41 44.72 534.71 44.72C537.01 44.72 538.88 46.59 538.88 48.89C538.88 51.19 537.01 53.06 534.71 53.06Z" fill="#A3923A"/>
<path d="M692.61 371.89L699.45 378.72L701.46 376.71L692.61 367.86L683.77 376.71L685.78 378.72L692.61 371.89Z" fill="#0D0B5E"/>
<path d="M692.61 383.82L699.45 390.65L701.46 388.64L692.61 379.79L683.77 388.64L685.78 390.65L692.61 383.82Z" fill="#0D0B5E"/>
<path d="M692.61 395.89L699.45 402.73L701.46 400.71L692.61 391.87L683.77 400.71L685.78 402.73L692.61 395.89Z" fill="#0D0B5E"/>
<path d="M692.61 347.89L699.45 354.72L701.46 352.71L692.61 343.86L683.77 352.71L685.78 354.72L692.61 347.89Z" fill="#0D0B5E"/>
<path d="M692.61 359.82L699.45 366.65L701.46 364.64L692.61 355.79L683.77 364.64L685.78 366.65L692.61 359.82Z" fill="#0D0B5E"/>
<path d="M43.32 313.52C50.9581 313.52 57.15 307.328 57.15 299.69C57.15 292.052 50.9581 285.86 43.32 285.86C35.6819 285.86 29.49 292.052 29.49 299.69C29.49 307.328 35.6819 313.52 43.32 313.52Z" fill="#A3923A"/>
<path d="M110.21 299.66L117.04 292.82L115.03 290.81L106.18 299.66L115.03 308.51L117.04 306.49L110.21 299.66Z" fill="#0D0B5E"/>
<path d="M122.14 299.66L128.97 292.82L126.96 290.81L118.11 299.66L126.96 308.51L128.97 306.49L122.14 299.66Z" fill="#0D0B5E"/>
<path d="M134.21 299.66L141.05 292.82L139.03 290.81L130.19 299.66L139.03 308.51L141.05 306.49L134.21 299.66Z" fill="#0D0B5E"/>
<path d="M86.2099 299.66L93.0399 292.82L91.0299 290.81L82.1799 299.66L91.0299 308.51L93.0399 306.49L86.2099 299.66Z" fill="#0D0B5E"/>
<path d="M98.1399 299.66L104.97 292.82L102.96 290.81L94.1099 299.66L102.96 308.51L104.97 306.49L98.1399 299.66Z" fill="#0D0B5E"/>
<path d="M281.22 90.21L264.78 106.57L248.33 90.21L231.89 106.57L215.45 90.21L200.95 104.64L186.44 90.21L170 106.57L153.55 90.21L137.11 106.57L120.67 90.21L104.35 106.45L106.17 108.27L120.67 93.84L137.11 110.2L153.55 93.84L170 110.2L186.44 93.84L200.95 108.28L215.45 93.84L231.89 110.2L248.33 93.84L264.78 110.2L281.22 93.84L295.73 108.27L297.54 106.45L281.22 90.21Z" fill="#FC2121"/>
<path d="M281.22 60.96L264.78 77.32L248.33 60.96L231.89 77.32L215.45 60.96L202.41 73.94L202.4 77.58L215.45 64.59L231.89 80.95L248.33 64.59L264.78 80.95L281.22 64.59L295.73 79.02L297.54 77.19L281.22 60.96Z" fill="#0D0B5E"/>
<path d="M617.06 486.42L600.62 502.78L584.17 486.42L567.73 502.78L551.29 486.42L534.83 502.81L536.72 504.55L551.29 490.04L567.73 506.4L584.17 490.04L600.62 506.4L617.06 490.04L631.57 504.47L633.38 502.65L617.06 486.42Z" fill="#0D0B5E"/>
<path d="M664.28 429.79C663.09 429.79 662.13 428.82 662.13 427.64C662.13 426.45 663.1 425.49 664.28 425.49C665.46 425.49 666.43 426.46 666.43 427.64C666.43 428.83 665.47 429.79 664.28 429.79Z" fill="#FC2121"/>
<path d="M664.28 448.26C663.09 448.26 662.13 447.29 662.13 446.11C662.13 444.92 663.1 443.96 664.28 443.96C665.46 443.96 666.43 444.93 666.43 446.11C666.43 447.29 665.47 448.26 664.28 448.26Z" fill="#FC2121"/>
<path d="M684.53 448.26C683.34 448.26 682.38 447.29 682.38 446.11C682.38 444.92 683.35 443.96 684.53 443.96C685.72 443.96 686.68 444.93 686.68 446.11C686.69 447.29 685.72 448.26 684.53 448.26Z" fill="#FC2121"/>
<path d="M664.28 466.73C663.09 466.73 662.13 465.76 662.13 464.58C662.13 463.39 663.1 462.43 664.28 462.43C665.46 462.43 666.43 463.4 666.43 464.58C666.43 465.76 665.47 466.73 664.28 466.73Z" fill="#FC2121"/>
<path d="M684.53 466.73C683.34 466.73 682.38 465.76 682.38 464.58C682.38 463.39 683.35 462.43 684.53 462.43C685.72 462.43 686.68 463.4 686.68 464.58C686.69 465.76 685.72 466.73 684.53 466.73Z" fill="#FC2121"/>
<path d="M704.78 466.73C703.59 466.73 702.63 465.76 702.63 464.58C702.63 463.39 703.6 462.43 704.78 462.43C705.97 462.43 706.93 463.4 706.93 464.58C706.94 465.76 705.97 466.73 704.78 466.73Z" fill="#FC2121"/>
<path d="M664.28 485.19C663.09 485.19 662.13 484.22 662.13 483.04C662.13 481.85 663.1 480.89 664.28 480.89C665.46 480.89 666.43 481.86 666.43 483.04C666.43 484.23 665.47 485.19 664.28 485.19Z" fill="#FC2121"/>
<path d="M684.53 485.19C683.34 485.19 682.38 484.22 682.38 483.04C682.38 481.85 683.35 480.89 684.53 480.89C685.72 480.89 686.68 481.86 686.68 483.04C686.69 484.23 685.72 485.19 684.53 485.19Z" fill="#FC2121"/>
<path d="M664.28 503.66C665.467 503.66 666.43 502.697 666.43 501.51C666.43 500.323 665.467 499.36 664.28 499.36C663.092 499.36 662.13 500.323 662.13 501.51C662.13 502.697 663.092 503.66 664.28 503.66Z" fill="#FC2121"/>
<path d="M15.31 327.53C14.25 327.53 13.38 326.67 13.38 325.6C13.38 324.54 14.24 323.67 15.31 323.67C16.38 323.67 17.24 324.53 17.24 325.6C17.24 326.67 16.38 327.53 15.31 327.53Z" fill="#FC2121"/>
<path d="M33.45 327.53C32.39 327.53 31.52 326.67 31.52 325.6C31.52 324.54 32.38 323.67 33.45 323.67C34.52 323.67 35.38 324.53 35.38 325.6C35.38 326.67 34.51 327.53 33.45 327.53Z" fill="#FC2121"/>
<path d="M51.58 327.53C50.52 327.53 49.65 326.67 49.65 325.6C49.65 324.54 50.51 323.67 51.58 323.67C52.64 323.67 53.51 324.53 53.51 325.6C53.51 326.67 52.65 327.53 51.58 327.53Z" fill="#FC2121"/>
<path d="M69.72 327.53C68.66 327.53 67.79 326.67 67.79 325.6C67.79 324.54 68.65 323.67 69.72 323.67C70.78 323.67 71.65 324.53 71.65 325.6C71.65 326.67 70.78 327.53 69.72 327.53Z" fill="#FC2121"/>
<path d="M87.8599 327.53C86.7999 327.53 85.9299 326.67 85.9299 325.6C85.9299 324.54 86.7899 323.67 87.8599 323.67C88.9199 323.67 89.7899 324.53 89.7899 325.6C89.7799 326.67 88.9199 327.53 87.8599 327.53Z" fill="#FC2121"/>
<path d="M105.99 327.53C104.93 327.53 104.06 326.67 104.06 325.6C104.06 324.54 104.92 323.67 105.99 323.67C107.05 323.67 107.92 324.53 107.92 325.6C107.92 326.67 107.05 327.53 105.99 327.53Z" fill="#FC2121"/>
<path d="M124.13 327.53C123.07 327.53 122.2 326.67 122.2 325.6C122.2 324.54 123.06 323.67 124.13 323.67C125.19 323.67 126.06 324.53 126.06 325.6C126.05 326.67 125.19 327.53 124.13 327.53Z" fill="#FC2121"/>
<path d="M142.26 327.53C141.2 327.53 140.33 326.67 140.33 325.6C140.33 324.54 141.19 323.67 142.26 323.67C143.32 323.67 144.19 324.53 144.19 325.6C144.19 326.67 143.33 327.53 142.26 327.53Z" fill="#FC2121"/>
<path d="M379.56 505.48C378.5 505.48 377.63 504.62 377.63 503.55C377.63 502.49 378.49 501.62 379.56 501.62C380.62 501.62 381.49 502.48 381.49 503.55C381.49 504.62 380.63 505.48 379.56 505.48Z" fill="#FC2121"/>
<path d="M343.18 505.48C342.12 505.48 341.25 504.62 341.25 503.55C341.25 502.49 342.11 501.62 343.18 501.62C344.25 501.62 345.11 502.48 345.11 503.55C345.11 504.62 344.24 505.48 343.18 505.48Z" fill="#FC2121"/>
<path d="M397.7 505.48C396.64 505.48 395.77 504.62 395.77 503.55C395.77 502.49 396.63 501.62 397.7 501.62C398.76 501.62 399.63 502.48 399.63 503.55C399.63 504.62 398.76 505.48 397.7 505.48Z" fill="#FC2121"/>
<path d="M415.84 505.48C414.78 505.48 413.91 504.62 413.91 503.55C413.91 502.49 414.77 501.62 415.84 501.62C416.9 501.62 417.77 502.48 417.77 503.55C417.76 504.62 416.9 505.48 415.84 505.48Z" fill="#FC2121"/>
<path d="M433.97 505.48C432.91 505.48 432.04 504.62 432.04 503.55C432.04 502.49 432.9 501.62 433.97 501.62C435.03 501.62 435.9 502.48 435.9 503.55C435.9 504.62 435.03 505.48 433.97 505.48Z" fill="#FC2121"/>
<path d="M488.38 505.48C487.32 505.48 486.45 504.62 486.45 503.55C486.45 502.49 487.31 501.62 488.38 501.62C489.44 501.62 490.31 502.48 490.31 503.55C490.31 504.62 489.44 505.48 488.38 505.48Z" fill="#FC2121"/>
<path d="M625.24 105.2C624.18 105.2 623.31 104.34 623.31 103.27C623.31 102.21 624.17 101.34 625.24 101.34C626.31 101.34 627.17 102.2 627.17 103.27C627.17 104.33 626.3 105.2 625.24 105.2Z" fill="#FC2121"/>
<path d="M643.38 105.2C642.32 105.2 641.45 104.34 641.45 103.27C641.45 102.21 642.31 101.34 643.38 101.34C644.44 101.34 645.31 102.2 645.31 103.27C645.3 104.33 644.44 105.2 643.38 105.2Z" fill="#FC2121"/>
<path d="M661.51 105.2C660.45 105.2 659.58 104.34 659.58 103.27C659.58 102.21 660.44 101.34 661.51 101.34C662.57 101.34 663.44 102.2 663.44 103.27C663.44 104.33 662.58 105.2 661.51 105.2Z" fill="#FC2121"/>
<path d="M679.65 105.2C678.59 105.2 677.72 104.34 677.72 103.27C677.72 102.21 678.58 101.34 679.65 101.34C680.71 101.34 681.58 102.2 681.58 103.27C681.58 104.33 680.71 105.2 679.65 105.2Z" fill="#FC2121"/>
<path d="M697.78 105.2C696.72 105.2 695.85 104.34 695.85 103.27C695.85 102.21 696.71 101.34 697.78 101.34C698.84 101.34 699.71 102.2 699.71 103.27C699.71 104.33 698.85 105.2 697.78 105.2Z" fill="#FC2121"/>
<path d="M715.92 105.2C714.86 105.2 713.99 104.34 713.99 103.27C713.99 102.21 714.85 101.34 715.92 101.34C716.99 101.34 717.85 102.2 717.85 103.27C717.85 104.33 716.98 105.2 715.92 105.2Z" fill="#FC2121"/>
<path d="M625.24 121.74C624.18 121.74 623.31 120.88 623.31 119.81C623.31 118.75 624.17 117.88 625.24 117.88C626.31 117.88 627.17 118.74 627.17 119.81C627.17 120.87 626.3 121.74 625.24 121.74Z" fill="#FC2121"/>
<path d="M643.38 121.74C642.32 121.74 641.45 120.88 641.45 119.81C641.45 118.75 642.31 117.88 643.38 117.88C644.44 117.88 645.31 118.74 645.31 119.81C645.3 120.87 644.44 121.74 643.38 121.74Z" fill="#FC2121"/>
<path d="M661.51 121.74C660.45 121.74 659.58 120.88 659.58 119.81C659.58 118.75 660.44 117.88 661.51 117.88C662.57 117.88 663.44 118.74 663.44 119.81C663.44 120.87 662.58 121.74 661.51 121.74Z" fill="#FC2121"/>
<path d="M679.65 121.74C678.59 121.74 677.72 120.88 677.72 119.81C677.72 118.75 678.58 117.88 679.65 117.88C680.71 117.88 681.58 118.74 681.58 119.81C681.58 120.87 680.71 121.74 679.65 121.74Z" fill="#FC2121"/>
<path d="M697.78 121.74C696.72 121.74 695.85 120.88 695.85 119.81C695.85 118.75 696.71 117.88 697.78 117.88C698.84 117.88 699.71 118.74 699.71 119.81C699.71 120.87 698.85 121.74 697.78 121.74Z" fill="#FC2121"/>
<path d="M715.92 121.74C714.86 121.74 713.99 120.88 713.99 119.81C713.99 118.75 714.85 117.88 715.92 117.88C716.99 117.88 717.85 118.74 717.85 119.81C717.85 120.87 716.98 121.74 715.92 121.74Z" fill="#FC2121"/>
<path d="M625.24 138.27C624.18 138.27 623.31 137.41 623.31 136.34C623.31 135.28 624.17 134.41 625.24 134.41C626.31 134.41 627.17 135.27 627.17 136.34C627.17 137.41 626.3 138.27 625.24 138.27Z" fill="#FC2121"/>
<path d="M643.38 138.27C642.32 138.27 641.45 137.41 641.45 136.34C641.45 135.28 642.31 134.41 643.38 134.41C644.44 134.41 645.31 135.27 645.31 136.34C645.3 137.41 644.44 138.27 643.38 138.27Z" fill="#FC2121"/>
<path d="M661.51 138.27C660.45 138.27 659.58 137.41 659.58 136.34C659.58 135.28 660.44 134.41 661.51 134.41C662.57 134.41 663.44 135.27 663.44 136.34C663.44 137.41 662.58 138.27 661.51 138.27Z" fill="#FC2121"/>
<path d="M679.65 138.27C678.59 138.27 677.72 137.41 677.72 136.34C677.72 135.28 678.58 134.41 679.65 134.41C680.71 134.41 681.58 135.27 681.58 136.34C681.58 137.41 680.71 138.27 679.65 138.27Z" fill="#FC2121"/>
<path d="M697.78 138.27C696.72 138.27 695.85 137.41 695.85 136.34C695.85 135.28 696.71 134.41 697.78 134.41C698.84 134.41 699.71 135.27 699.71 136.34C699.71 137.41 698.85 138.27 697.78 138.27Z" fill="#FC2121"/>
<path d="M715.92 138.27C714.86 138.27 713.99 137.41 713.99 136.34C713.99 135.28 714.85 134.41 715.92 134.41C716.99 134.41 717.85 135.27 717.85 136.34C717.85 137.41 716.98 138.27 715.92 138.27Z" fill="#FC2121"/>
<path d="M625.24 154.81C624.18 154.81 623.31 153.95 623.31 152.88C623.31 151.82 624.17 150.95 625.24 150.95C626.31 150.95 627.17 151.81 627.17 152.88C627.17 153.94 626.3 154.81 625.24 154.81Z" fill="#FC2121"/>
<path d="M643.38 154.81C642.32 154.81 641.45 153.95 641.45 152.88C641.45 151.82 642.31 150.95 643.38 150.95C644.44 150.95 645.31 151.81 645.31 152.88C645.3 153.94 644.44 154.81 643.38 154.81Z" fill="#FC2121"/>
<path d="M661.51 154.81C660.45 154.81 659.58 153.95 659.58 152.88C659.58 151.82 660.44 150.95 661.51 150.95C662.57 150.95 663.44 151.81 663.44 152.88C663.44 153.94 662.58 154.81 661.51 154.81Z" fill="#FC2121"/>
<path d="M679.65 154.81C678.59 154.81 677.72 153.95 677.72 152.88C677.72 151.82 678.58 150.95 679.65 150.95C680.71 150.95 681.58 151.81 681.58 152.88C681.58 153.94 680.71 154.81 679.65 154.81Z" fill="#FC2121"/>
<path d="M697.78 154.81C696.72 154.81 695.85 153.95 695.85 152.88C695.85 151.82 696.71 150.95 697.78 150.95C698.84 150.95 699.71 151.81 699.71 152.88C699.71 153.94 698.85 154.81 697.78 154.81Z" fill="#FC2121"/>
<path d="M715.92 154.81C714.86 154.81 713.99 153.95 713.99 152.88C713.99 151.82 714.85 150.95 715.92 150.95C716.99 150.95 717.85 151.81 717.85 152.88C717.85 153.94 716.98 154.81 715.92 154.81Z" fill="#FC2121"/>
<path d="M625.24 171.35C624.18 171.35 623.31 170.49 623.31 169.42C623.31 168.36 624.17 167.49 625.24 167.49C626.31 167.49 627.17 168.35 627.17 169.42C627.17 170.48 626.3 171.35 625.24 171.35Z" fill="#FC2121"/>
<path d="M643.38 171.35C642.32 171.35 641.45 170.49 641.45 169.42C641.45 168.36 642.31 167.49 643.38 167.49C644.44 167.49 645.31 168.35 645.31 169.42C645.3 170.48 644.44 171.35 643.38 171.35Z" fill="#FC2121"/>
<path d="M661.51 171.35C660.45 171.35 659.58 170.49 659.58 169.42C659.58 168.36 660.44 167.49 661.51 167.49C662.57 167.49 663.44 168.35 663.44 169.42C663.44 170.48 662.58 171.35 661.51 171.35Z" fill="#FC2121"/>
<path d="M679.65 171.35C678.59 171.35 677.72 170.49 677.72 169.42C677.72 168.36 678.58 167.49 679.65 167.49C680.71 167.49 681.58 168.35 681.58 169.42C681.58 170.48 680.71 171.35 679.65 171.35Z" fill="#FC2121"/>
<path d="M697.78 171.35C696.72 171.35 695.85 170.49 695.85 169.42C695.85 168.36 696.71 167.49 697.78 167.49C698.84 167.49 699.71 168.35 699.71 169.42C699.71 170.48 698.85 171.35 697.78 171.35Z" fill="#FC2121"/>
<path d="M715.92 171.35C714.86 171.35 713.99 170.49 713.99 169.42C713.99 168.36 714.85 167.49 715.92 167.49C716.99 167.49 717.85 168.35 717.85 169.42C717.85 170.48 716.98 171.35 715.92 171.35Z" fill="#FC2121"/>
<path d="M625.24 187.88C624.18 187.88 623.31 187.02 623.31 185.95C623.31 184.89 624.17 184.02 625.24 184.02C626.31 184.02 627.17 184.88 627.17 185.95C627.17 187.02 626.3 187.88 625.24 187.88Z" fill="#FC2121"/>
<path d="M643.38 187.88C642.32 187.88 641.45 187.02 641.45 185.95C641.45 184.89 642.31 184.02 643.38 184.02C644.44 184.02 645.31 184.88 645.31 185.95C645.3 187.02 644.44 187.88 643.38 187.88Z" fill="#FC2121"/>
<path d="M661.51 187.88C660.45 187.88 659.58 187.02 659.58 185.95C659.58 184.89 660.44 184.02 661.51 184.02C662.57 184.02 663.44 184.88 663.44 185.95C663.44 187.02 662.58 187.88 661.51 187.88Z" fill="#FC2121"/>
<path d="M679.65 187.88C678.59 187.88 677.72 187.02 677.72 185.95C677.72 184.89 678.58 184.02 679.65 184.02C680.71 184.02 681.58 184.88 681.58 185.95C681.58 187.02 680.71 187.88 679.65 187.88Z" fill="#FC2121"/>
<path d="M697.78 187.88C696.72 187.88 695.85 187.02 695.85 185.95C695.85 184.89 696.71 184.02 697.78 184.02C698.84 184.02 699.71 184.88 699.71 185.95C699.71 187.02 698.85 187.88 697.78 187.88Z" fill="#FC2121"/>
<path d="M715.92 187.88C714.86 187.88 713.99 187.02 713.99 185.95C713.99 184.89 714.85 184.02 715.92 184.02C716.99 184.02 717.85 184.88 717.85 185.95C717.85 187.02 716.98 187.88 715.92 187.88Z" fill="#FC2121"/>
<path d="M701.63 200.85L616.58 115.8H701.63V200.85Z" fill="#0D0B5E"/>
<path d="M58.8699 51.81C57.7499 51.81 56.9399 52.62 56.9399 53.73C56.9399 54.85 57.7499 55.66 58.8599 55.66C59.9799 55.66 60.7799 54.85 60.7899 53.74C60.7899 52.62 59.9899 51.81 58.8699 51.81Z" fill="#FC2121"/>
<path d="M78.13 51.81C77.01 51.79 76.17 52.58 76.15 53.69C76.13 54.81 76.93 55.65 78.03 55.67C79.15 55.69 79.98 54.9 80 53.79C80.03 52.66 79.24 51.83 78.13 51.81Z" fill="#FC2121"/>
<path d="M97.32 51.81C96.2 51.8 95.38 52.61 95.37 53.72C95.36 54.84 96.17 55.66 97.28 55.67C98.4 55.68 99.21 54.88 99.22 53.76C99.23 52.63 98.44 51.82 97.32 51.81Z" fill="#FC2121"/>
<path d="M10.81 65.28C11.93 65.28 12.74 64.48 12.74 63.36C12.74 62.24 11.94 61.43 10.82 61.43C9.69998 61.43 8.88998 62.24 8.88998 63.35C8.87998 64.46 9.69999 65.27 10.81 65.28Z" fill="#FC2121"/>
<path d="M30 65.28C31.12 65.29 31.94 64.5 31.96 63.38C31.97 62.25 31.18 61.43 30.07 61.42C28.95 61.41 28.12 62.2 28.11 63.31C28.09 64.43 28.9 65.26 30 65.28Z" fill="#FC2121"/>
<path d="M49.23 61.42C48.12 61.43 47.31 62.25 47.32 63.37C47.33 64.48 48.16 65.29 49.27 65.28C50.39 65.27 51.18 64.45 51.17 63.33C51.17 62.21 50.35 61.41 49.23 61.42Z" fill="#FC2121"/>
<path d="M68.55 61.42C67.43 61.39 66.58 62.17 66.54 63.27C66.51 64.39 67.29 65.24 68.39 65.28C69.51 65.31 70.36 64.53 70.39 63.43C70.43 62.29 69.66 61.45 68.55 61.42Z" fill="#FC2121"/>
<path d="M87.7301 61.42C86.6101 61.41 85.7801 62.21 85.7701 63.31C85.7601 64.43 86.5601 65.26 87.6701 65.27C88.7901 65.28 89.6101 64.48 89.6201 63.37C89.6301 62.25 88.8401 61.43 87.7301 61.42Z" fill="#FC2121"/>
<path d="M20.43 74.89C21.55 74.88 22.35 74.07 22.34 72.95C22.34 71.83 21.53 71.03 20.41 71.03C19.29 71.03 18.49 71.85 18.49 72.97C18.5 74.08 19.32 74.89 20.43 74.89Z" fill="#FC2121"/>
<path d="M37.72 72.82C37.66 73.95 38.42 74.82 39.51 74.89C40.63 74.95 41.51 74.19 41.57 73.1C41.63 71.97 40.88 71.1 39.79 71.04C38.65 70.97 37.78 71.73 37.72 72.82Z" fill="#FC2121"/>
<path d="M58.94 71.03C57.82 71 56.97 71.77 56.94 72.88C56.91 74 57.69 74.85 58.79 74.89C59.91 74.92 60.76 74.14 60.79 73.04C60.82 71.9 60.05 71.06 58.94 71.03Z" fill="#FC2121"/>
<path d="M78.05 71.03C76.94 71.04 76.14 71.87 76.16 72.99C76.17 74.1 77 74.9 78.12 74.89C79.23 74.87 80.02 74.05 80.01 72.93C79.99 71.81 79.17 71.02 78.05 71.03Z" fill="#FC2121"/>
<path d="M30.03 84.5C31.15 84.5 31.95 83.7 31.96 82.58C31.96 81.46 31.16 80.65 30.04 80.65C28.92 80.65 28.11 81.46 28.11 82.57C28.11 83.68 28.92 84.5 30.03 84.5Z" fill="#FC2121"/>
<path d="M49.2099 80.64C48.0999 80.66 47.2999 81.49 47.3199 82.61C47.3399 83.72 48.1699 84.52 49.2899 84.5C50.3999 84.48 51.1899 83.66 51.1699 82.53C51.1599 81.41 50.3399 80.62 49.2099 80.64Z" fill="#FC2121"/>
<path d="M68.51 80.64C67.39 80.63 66.56 81.43 66.55 82.53C66.54 83.65 67.34 84.48 68.45 84.49C69.57 84.5 70.39 83.71 70.4 82.59C70.41 81.47 69.62 80.65 68.51 80.64Z" fill="#FC2121"/>
<path d="M39.57 94.11C40.69 94.14 41.54 93.36 41.57 92.26C41.6 91.13 40.83 90.29 39.73 90.26C38.61 90.23 37.76 91.01 37.72 92.11C37.68 93.22 38.47 94.07 39.57 94.11Z" fill="#FC2121"/>
<path d="M58.9101 90.25C57.7901 90.23 56.9501 91.02 56.9301 92.13C56.9101 93.25 57.7101 94.09 58.8101 94.11C59.9301 94.13 60.7601 93.34 60.7801 92.23C60.8101 91.1 60.0201 90.27 58.9101 90.25Z" fill="#FC2121"/>
<path d="M49.22 99.86C48.11 99.88 47.31 100.7 47.33 101.82C47.35 102.93 48.18 103.73 49.29 103.71C50.4 103.69 51.19 102.87 51.18 101.75C51.16 100.64 50.34 99.84 49.22 99.86Z" fill="#FC2121"/>
<path d="M30.04 26.84C31.16 26.84 31.96 26.03 31.96 24.9C31.96 23.78 31.15 22.98 30.03 22.98C28.91 22.98 28.1 23.8 28.11 24.91C28.11 26.03 28.93 26.84 30.04 26.84Z" fill="#FC2121"/>
<path d="M51.17 25.04C51.23 23.91 50.48 23.04 49.39 22.98C48.26 22.92 47.39 23.68 47.33 24.77C47.27 25.89 48.03 26.77 49.12 26.83C50.24 26.9 51.12 26.13 51.17 25.04Z" fill="#FC2121"/>
<path d="M68.51 22.98C67.39 22.97 66.56 23.77 66.55 24.87C66.54 25.99 67.34 26.82 68.45 26.83C69.57 26.84 70.39 26.05 70.4 24.93C70.41 23.81 69.62 23 68.51 22.98Z" fill="#FC2121"/>
<path d="M20.46 36.45C21.57 36.43 22.36 35.61 22.35 34.49C22.34 33.38 21.52 32.58 20.39 32.6C19.28 32.62 18.48 33.44 18.5 34.56C18.51 35.66 19.34 36.46 20.46 36.45Z" fill="#FC2121"/>
<path d="M39.6799 32.59C38.5599 32.58 37.7399 33.37 37.7199 34.48C37.7099 35.6 38.4999 36.43 39.6099 36.44C40.7299 36.45 41.5499 35.66 41.5699 34.54C41.5799 33.43 40.7899 32.61 39.6799 32.59Z" fill="#FC2121"/>
<path d="M58.88 32.59C57.76 32.58 56.94 33.38 56.94 34.5C56.93 35.62 57.74 36.44 58.85 36.45C59.97 36.46 60.78 35.65 60.79 34.54C60.79 33.41 60 32.6 58.88 32.59Z" fill="#FC2121"/>
<path d="M78.0799 32.59C76.9599 32.59 76.1599 33.4 76.1599 34.52C76.1599 35.64 76.9799 36.45 78.0899 36.44C79.2099 36.44 80.0099 35.63 80.0099 34.5C79.9999 33.39 79.1999 32.59 78.0799 32.59Z" fill="#FC2121"/>
<path d="M10.79 46.06C11.91 46.07 12.72 45.27 12.73 44.15C12.74 43.03 11.94 42.21 10.83 42.2C9.71001 42.19 8.89 43 8.88 44.11C8.88 45.22 9.69001 46.05 10.79 46.06Z" fill="#FC2121"/>
<path d="M30.01 46.06C31.13 46.07 31.94 45.27 31.95 44.15C31.96 43.03 31.16 42.21 30.05 42.2C28.93 42.19 28.11 43 28.1 44.11C28.1 45.22 28.91 46.05 30.01 46.06Z" fill="#FC2121"/>
<path d="M49.3301 42.2C48.2101 42.17 47.3601 42.95 47.3201 44.05C47.2901 45.17 48.07 46.02 49.17 46.06C50.29 46.1 51.14 45.31 51.17 44.21C51.21 43.07 50.4401 42.24 49.3301 42.2Z" fill="#FC2121"/>
<path d="M68.48 42.2C67.36 42.2 66.55 43.01 66.55 44.12C66.55 45.24 67.36 46.05 68.47 46.06C69.59 46.06 70.4 45.26 70.4 44.14C70.4 43.01 69.6 42.2 68.48 42.2Z" fill="#FC2121"/>
<path d="M87.7101 42.2C86.5901 42.19 85.7701 43 85.7601 44.11C85.7501 45.23 86.5601 46.05 87.6701 46.06C88.7901 46.07 89.6001 45.26 89.6101 44.15C89.6201 43.02 88.8301 42.21 87.7101 42.2Z" fill="#FC2121"/>
<path d="M1.19 55.67C2.31 55.68 3.12 54.87 3.13 53.76C3.14 52.64 2.34 51.82 1.23 51.82C0.109998 51.81 -0.710001 52.62 -0.720001 53.73C-0.730001 54.83 0.0799986 55.66 1.19 55.67Z" fill="#FC2121"/>
<path d="M20.35 55.67C21.47 55.71 22.32 54.92 22.35 53.82C22.38 52.69 21.61 51.85 20.51 51.81C19.39 51.78 18.54 52.56 18.5 53.66C18.46 54.78 19.25 55.63 20.35 55.67Z" fill="#FC2121"/>
<path d="M39.6701 51.81C38.5501 51.8 37.7201 52.6 37.7101 53.71C37.7001 54.83 38.5001 55.66 39.6101 55.67C40.7301 55.68 41.5501 54.88 41.5601 53.77C41.5801 52.64 40.7901 51.82 39.6701 51.81Z" fill="#FC2121"/>
<path d="M145.67 400.9V351.93H96.7V400.9V449.87H145.67H194.64V400.9H145.67Z" fill="#0D0B5E"/>
<path d="M175.63 470.88H75.6899V370.94H126.66V419.91H175.63V470.88ZM77.6899 468.88H173.63V421.91H124.66V372.94H77.6899V468.88Z" fill="#FC2121"/>
<path d="M155.92 352.46H152.94V394.96H155.92V352.46Z" fill="#A3923A"/>
<path d="M163.51 352.45H160.53V394.95H163.51V352.45Z" fill="#A3923A"/>
<path d="M171.09 352.46H168.11V394.96H171.09V352.46Z" fill="#A3923A"/>
<path d="M178.67 352.46H175.69V394.96H178.67V352.46Z" fill="#A3923A"/>
<path d="M186.25 352.45H183.27V394.95H186.25V352.45Z" fill="#A3923A"/>
<path d="M193.74 352.46H190.85V394.96H193.74V352.46Z" fill="#A3923A"/>
<path d="M75.14 187.9H-21.85V262.45H75.14C85.41 262.43 94.7 258.27 101.44 251.53C108.19 244.79 112.36 235.47 112.36 225.18C112.36 204.61 95.7 187.93 75.14 187.9Z" fill="#0D0B5E"/>
<path d="M112.36 225.18C112.36 235.47 108.19 244.79 101.44 251.53C94.7 258.27 85.41 262.43 75.14 262.45H75.08C54.52 262.42 37.87 245.74 37.87 225.18C37.87 204.61 54.52 187.93 75.08 187.9H75.14C95.7 187.93 112.36 204.61 112.36 225.18Z" fill="#0D0B5E"/>
<path d="M75.14 263.45C54.01 263.42 36.87 246.25 36.87 225.18C36.87 204.1 54.01 186.93 75.08 186.9C96.22 186.93 113.36 204.1 113.36 225.18C113.36 235.41 109.38 245.02 102.15 252.24C94.94 259.45 85.35 263.43 75.14 263.45ZM75.14 188.9C55.12 188.93 38.87 205.2 38.87 225.18C38.87 245.15 55.11 261.42 75.08 261.45C84.81 261.43 93.9 257.66 100.73 250.82C107.58 243.98 111.36 234.87 111.36 225.18C111.36 205.21 95.11 188.93 75.14 188.9Z" fill="#FC2121"/>
<path d="M25.43 353.33H-21.85V363.3H25.43V353.33Z" fill="#A3923A"/>
<path d="M25.43 375H-21.85V384.97H25.43V375Z" fill="#0D0B5E"/>
<path d="M3.49002 395.38H-21.85V405.35H3.49002V395.38Z" fill="#FC2121"/>
<path d="M576.47 141.68H573.09V158.71H576.47V141.68Z" fill="#FC2121"/>
<path d="M595.04 141.68H591.66V158.71H595.04V141.68Z" fill="#FC2121"/>
<path d="M-3.32642 142.63V146.01H13.7036V142.63H-3.32642Z" fill="#FC2121"/>
<path d="M-3.33411 124.058V127.438H13.6959V124.058H-3.33411Z" fill="#A3923A"/>
<path d="M-3.33362 105.477V108.857H13.6964V105.477H-3.33362Z" fill="#0D0B5E"/>
<path d="M489.85 80.85C454.91 80.85 426.59 109.17 426.59 144.11C426.59 179.05 454.91 207.37 489.85 207.37C524.79 207.37 553.11 179.05 553.11 144.11C553.11 109.17 524.79 80.85 489.85 80.85ZM489.85 182.53C468.63 182.53 451.43 165.33 451.43 144.11C451.43 122.89 468.63 105.69 489.85 105.69C511.07 105.69 528.27 122.89 528.27 144.11C528.27 165.33 511.07 182.53 489.85 182.53Z" fill="#A3923A"/>
<path d="M510.33 480.84C468.69 480.84 429.54 464.62 400.09 435.18L401.5 433.77C461.51 493.78 559.14 493.78 619.15 433.77C648.22 404.7 664.23 366.05 664.23 324.95C664.23 283.85 648.22 245.19 619.15 216.13L620.56 214.72C650.01 244.17 666.22 283.32 666.22 324.96C666.22 366.6 650 405.75 620.56 435.2C591.12 464.63 551.97 480.84 510.33 480.84Z" fill="#FC2121"/>
<path d="M510.33 470.05C473.15 470.05 435.98 455.9 407.68 427.6L409.09 426.19C464.91 482.01 555.74 482.01 611.57 426.19C667.39 370.37 667.39 279.53 611.57 223.71L612.98 222.3C669.58 278.9 669.58 371 612.98 427.61C584.68 455.9 547.5 470.05 510.33 470.05Z" fill="#FC2121"/>
<path d="M510.33 459.39C474.42 459.39 440.66 445.4 415.26 420.01L416.67 418.6C441.69 443.62 474.95 457.39 510.32 457.39C545.7 457.39 578.96 443.61 603.97 418.6C628.99 393.58 642.76 360.32 642.76 324.95C642.76 289.57 628.98 256.31 603.97 231.3L605.38 229.89C630.77 255.28 644.76 289.05 644.76 324.96C644.76 360.87 630.77 394.63 605.38 420.03C580 445.4 546.24 459.39 510.33 459.39Z" fill="#FC2121"/>
<path d="M510.33 448.6C478.65 448.6 446.97 436.54 422.85 412.42L424.26 411.01C471.72 458.47 548.94 458.47 596.4 411.01C643.86 363.55 643.86 286.33 596.4 238.87L597.81 237.46C646.05 285.7 646.05 364.19 597.81 412.42C573.69 436.54 542.01 448.6 510.33 448.6Z" fill="#FC2121"/>
<path d="M510.33 437.88C481.4 437.88 452.46 426.87 430.43 404.84L431.84 403.43C475.12 446.71 545.53 446.71 588.8 403.43C632.08 360.15 632.08 289.74 588.8 246.47L590.21 245.06C634.26 289.11 634.26 360.8 590.21 404.85C568.2 426.87 539.26 437.88 510.33 437.88Z" fill="#FC2121"/>
<path d="M510.33 427.16C484.14 427.16 457.95 417.19 438.02 397.26L439.43 395.85C478.52 434.94 542.13 434.94 581.22 395.85C600.16 376.91 610.59 351.73 610.59 324.95C610.59 298.17 600.16 272.99 581.22 254.05L582.63 252.64C601.95 271.95 612.58 297.64 612.58 324.95C612.58 352.26 601.94 377.95 582.63 397.26C562.7 417.19 536.52 427.16 510.33 427.16Z" fill="#FC2121"/>
<path d="M510.33 416.44C486.89 416.44 463.45 407.52 445.6 389.67L447.01 388.26C481.92 423.17 538.72 423.17 573.63 388.26C608.54 353.35 608.54 296.55 573.63 261.64L575.04 260.23C610.73 295.92 610.73 353.99 575.04 389.68C557.21 407.51 533.77 416.44 510.33 416.44Z" fill="#FC2121"/>
<path d="M572.53 207.55L566.76 213.31V207.55H572.53Z" fill="#FC2121"/>
<path d="M583.21 207.55L566.76 224V218.24L577.45 207.55H583.21Z" fill="#FC2121"/>
<path d="M615.19 207.55L566.76 255.97V250.3L609.51 207.55H615.19Z" fill="#FC2121"/>
<path d="M604.59 207.55L566.76 245.37V239.61L598.83 207.55H604.59Z" fill="#FC2121"/>
<path d="M593.9 207.55L566.76 234.69V228.92L588.14 207.55H593.9Z" fill="#FC2121"/>
<path d="M398.94 495.45C509.424 495.45 598.99 405.885 598.99 295.4C598.99 184.915 509.424 95.35 398.94 95.35C288.455 95.35 198.89 184.915 198.89 295.4C198.89 405.885 288.455 495.45 398.94 495.45Z" fill="url(#paint0_radial)"/>
<path d="M353.15 465.78C461.171 465.78 548.74 378.211 548.74 270.19C548.74 162.169 461.171 74.6 353.15 74.6C245.128 74.6 157.56 162.169 157.56 270.19C157.56 378.211 245.128 465.78 353.15 465.78Z" fill="#F9F5EF"/>
<path d="M356.05 120.51C357.431 120.51 358.55 119.391 358.55 118.01C358.55 116.629 357.431 115.51 356.05 115.51C354.669 115.51 353.55 116.629 353.55 118.01C353.55 119.391 354.669 120.51 356.05 120.51Z" fill="#A3923A"/>
<path d="M382.18 122.68C380.83 122.68 379.74 121.59 379.74 120.24C379.74 118.89 380.83 117.8 382.18 117.8C383.53 117.8 384.62 118.89 384.62 120.24C384.62 121.59 383.53 122.68 382.18 122.68Z" fill="#A3923A"/>
<path d="M407.54 129.32C408.854 129.32 409.92 128.254 409.92 126.94C409.92 125.626 408.854 124.56 407.54 124.56C406.225 124.56 405.16 125.626 405.16 126.94C405.16 128.254 406.225 129.32 407.54 129.32Z" fill="#A3923A"/>
<path d="M431.35 140.24C430.07 140.24 429.03 139.2 429.03 137.92C429.03 136.64 430.07 135.6 431.35 135.6C432.63 135.6 433.67 136.64 433.67 137.92C433.68 139.2 432.64 140.24 431.35 140.24Z" fill="#A3923A"/>
<path d="M452.93 155.08C451.68 155.08 450.67 154.07 450.67 152.82C450.67 151.57 451.68 150.56 452.93 150.56C454.18 150.56 455.19 151.57 455.19 152.82C455.19 154.07 454.18 155.08 452.93 155.08Z" fill="#A3923A"/>
<path d="M471.64 173.4C472.86 173.4 473.85 172.411 473.85 171.19C473.85 169.969 472.86 168.98 471.64 168.98C470.419 168.98 469.43 169.969 469.43 171.19C469.43 172.411 470.419 173.4 471.64 173.4Z" fill="#A3923A"/>
<path d="M486.93 194.64C485.74 194.64 484.78 193.68 484.78 192.49C484.78 191.3 485.74 190.34 486.93 190.34C488.12 190.34 489.08 191.3 489.08 192.49C489.08 193.68 488.12 194.64 486.93 194.64Z" fill="#A3923A"/>
<path d="M500.418 216.466C500.602 215.326 499.827 214.254 498.688 214.07C497.548 213.886 496.475 214.661 496.291 215.8C496.108 216.94 496.882 218.012 498.022 218.196C499.161 218.38 500.234 217.605 500.418 216.466Z" fill="#A3923A"/>
<path d="M505.5 243.36C504.38 243.36 503.47 242.45 503.47 241.33C503.47 240.21 504.38 239.3 505.5 239.3C506.62 239.3 507.53 240.21 507.53 241.33C507.53 242.45 506.62 243.36 505.5 243.36Z" fill="#A3923A"/>
<path d="M508.21 269.38C507.12 269.38 506.24 268.5 506.24 267.41C506.24 266.32 507.12 265.44 508.21 265.44C509.3 265.44 510.18 266.32 510.18 267.41C510.18 268.5 509.3 269.38 508.21 269.38Z" fill="#A3923A"/>
<path d="M506.45 295.49C505.39 295.49 504.54 294.63 504.54 293.58C504.54 292.52 505.4 291.67 506.45 291.67C507.51 291.67 508.36 292.53 508.36 293.58C508.36 294.63 507.5 295.49 506.45 295.49Z" fill="#A3923A"/>
<path d="M500.22 320.9C499.2 320.9 498.37 320.07 498.37 319.05C498.37 318.03 499.2 317.2 500.22 317.2C501.24 317.2 502.07 318.03 502.07 319.05C502.07 320.07 501.24 320.9 500.22 320.9Z" fill="#A3923A"/>
<path d="M489.68 344.86C488.69 344.86 487.89 344.06 487.89 343.07C487.89 342.08 488.69 341.28 489.68 341.28C490.67 341.28 491.47 342.08 491.47 343.07C491.47 344.05 490.67 344.86 489.68 344.86Z" fill="#A3923A"/>
<path d="M475.17 366.64C474.21 366.64 473.44 365.86 473.44 364.91C473.44 363.95 474.22 363.18 475.17 363.18C476.13 363.18 476.9 363.96 476.9 364.91C476.9 365.86 476.13 366.64 475.17 366.64Z" fill="#A3923A"/>
<path d="M457.14 385.62C456.21 385.62 455.46 384.87 455.46 383.94C455.46 383.01 456.21 382.26 457.14 382.26C458.07 382.26 458.82 383.01 458.82 383.94C458.81 384.87 458.06 385.62 457.14 385.62Z" fill="#A3923A"/>
<path d="M436.12 401.24C435.23 401.24 434.5 400.52 434.5 399.62C434.5 398.72 435.22 398 436.12 398C437.02 398 437.74 398.72 437.74 399.62C437.74 400.52 437.01 401.24 436.12 401.24Z" fill="#A3923A"/>
<path d="M412.72 413.02C411.86 413.02 411.16 412.32 411.16 411.46C411.16 410.6 411.86 409.9 412.72 409.9C413.58 409.9 414.28 410.6 414.28 411.46C414.28 412.32 413.58 413.02 412.72 413.02Z" fill="#A3923A"/>
<path d="M387.63 420.58C386.8 420.58 386.13 419.91 386.13 419.08C386.13 418.25 386.8 417.58 387.63 417.58C388.46 417.58 389.13 418.25 389.13 419.08C389.13 419.91 388.46 420.58 387.63 420.58Z" fill="#A3923A"/>
<path d="M361.6 423.71C360.8 423.71 360.16 423.07 360.16 422.27C360.16 421.47 360.8 420.83 361.6 420.83C362.4 420.83 363.04 421.47 363.04 422.27C363.04 423.07 362.4 423.71 361.6 423.71Z" fill="#A3923A"/>
<path d="M335.41 422.36C334.65 422.36 334.03 421.74 334.03 420.98C334.03 420.22 334.65 419.6 335.41 419.6C336.17 419.6 336.79 420.22 336.79 420.98C336.79 421.74 336.17 422.36 335.41 422.36Z" fill="#A3923A"/>
<path d="M309.83 416.54C309.1 416.54 308.51 415.95 308.51 415.22C308.51 414.49 309.1 413.9 309.83 413.9C310.56 413.9 311.15 414.49 311.15 415.22C311.15 415.95 310.56 416.54 309.83 416.54Z" fill="#A3923A"/>
<path d="M285.62 406.38C284.92 406.38 284.36 405.81 284.36 405.12C284.36 404.42 284.93 403.86 285.62 403.86C286.32 403.86 286.88 404.43 286.88 405.12C286.89 405.82 286.32 406.38 285.62 406.38Z" fill="#A3923A"/>
<path d="M263.52 392.21C262.85 392.21 262.32 391.67 262.32 391.01C262.32 390.35 262.86 389.81 263.52 389.81C264.18 389.81 264.72 390.35 264.72 391.01C264.72 391.67 264.19 392.21 263.52 392.21Z" fill="#A3923A"/>
<path d="M244.15 374.47C244.785 374.47 245.3 373.955 245.3 373.32C245.3 372.685 244.785 372.17 244.15 372.17C243.515 372.17 243 372.685 243 373.32C243 373.955 243.515 374.47 244.15 374.47Z" fill="#A3923A"/>
<path d="M356.05 132.22C357.431 132.22 358.55 131.101 358.55 129.72C358.55 128.339 357.431 127.22 356.05 127.22C354.669 127.22 353.55 128.339 353.55 129.72C353.55 131.101 354.669 132.22 356.05 132.22Z" fill="#A3923A"/>
<path d="M381.87 134.5C380.54 134.5 379.46 133.42 379.46 132.09C379.46 130.76 380.54 129.68 381.87 129.68C383.2 129.68 384.28 130.76 384.28 132.09C384.28 133.42 383.2 134.5 381.87 134.5Z" fill="#A3923A"/>
<path d="M406.81 141.48C408.086 141.48 409.12 140.446 409.12 139.17C409.12 137.894 408.086 136.86 406.81 136.86C405.534 136.86 404.5 137.894 404.5 139.17C404.5 140.446 405.534 141.48 406.81 141.48Z" fill="#A3923A"/>
<path d="M430.01 152.96C428.79 152.96 427.79 151.97 427.79 150.74C427.79 149.52 428.78 148.52 430.01 148.52C431.23 148.52 432.23 149.51 432.23 150.74C432.22 151.97 431.23 152.96 430.01 152.96Z" fill="#A3923A"/>
<path d="M450.68 168.5C449.51 168.5 448.56 167.55 448.56 166.38C448.56 165.21 449.51 164.26 450.68 164.26C451.85 164.26 452.8 165.21 452.8 166.38C452.8 167.55 451.86 168.5 450.68 168.5Z" fill="#A3923A"/>
<path d="M468.15 187.56C467.03 187.56 466.12 186.65 466.12 185.53C466.12 184.41 467.03 183.5 468.15 183.5C469.27 183.5 470.18 184.41 470.18 185.53C470.18 186.65 469.27 187.56 468.15 187.56Z" fill="#A3923A"/>
<path d="M481.82 209.5C480.75 209.5 479.89 208.63 479.89 207.57C479.89 206.5 480.76 205.64 481.82 205.64C482.88 205.64 483.75 206.51 483.75 207.57C483.75 208.63 482.89 209.5 481.82 209.5Z" fill="#A3923A"/>
<path d="M491.19 233.57C492.206 233.57 493.03 232.746 493.03 231.73C493.03 230.714 492.206 229.89 491.19 229.89C490.174 229.89 489.35 230.714 489.35 231.73C489.35 232.746 490.174 233.57 491.19 233.57Z" fill="#A3923A"/>
<path d="M495.93 258.97C494.97 258.97 494.19 258.19 494.19 257.23C494.19 256.27 494.97 255.49 495.93 255.49C496.89 255.49 497.67 256.27 497.67 257.23C497.67 258.19 496.89 258.97 495.93 258.97Z" fill="#A3923A"/>
<path d="M495.93 284.8C495.02 284.8 494.28 284.06 494.28 283.15C494.28 282.24 495.02 281.5 495.93 281.5C496.84 281.5 497.58 282.24 497.58 283.15C497.58 284.06 496.84 284.8 495.93 284.8Z" fill="#A3923A"/>
<path d="M491.19 310.19C490.33 310.19 489.64 309.49 489.64 308.64C489.64 307.78 490.34 307.09 491.19 307.09C492.05 307.09 492.74 307.79 492.74 308.64C492.74 309.49 492.05 310.19 491.19 310.19Z" fill="#A3923A"/>
<path d="M481.82 334.27C481.01 334.27 480.36 333.62 480.36 332.81C480.36 332 481.01 331.35 481.82 331.35C482.63 331.35 483.28 332 483.28 332.81C483.28 333.61 482.63 334.27 481.82 334.27Z" fill="#A3923A"/>
<path d="M468.16 356.2C467.41 356.2 466.8 355.59 466.8 354.84C466.8 354.09 467.41 353.48 468.16 353.48C468.91 353.48 469.52 354.09 469.52 354.84C469.52 355.59 468.91 356.2 468.16 356.2Z" fill="#A3923A"/>
<path d="M450.69 375.26C449.99 375.26 449.42 374.69 449.42 373.99C449.42 373.29 449.99 372.72 450.69 372.72C451.39 372.72 451.96 373.29 451.96 373.99C451.95 374.69 451.39 375.26 450.69 375.26Z" fill="#A3923A"/>
<path d="M430.01 390.8C429.36 390.8 428.84 390.27 428.84 389.63C428.84 388.99 429.37 388.46 430.01 388.46C430.66 388.46 431.18 388.99 431.18 389.63C431.18 390.27 430.66 390.8 430.01 390.8Z" fill="#A3923A"/>
<path d="M406.81 402.28C406.21 402.28 405.73 401.8 405.73 401.2C405.73 400.6 406.21 400.12 406.81 400.12C407.41 400.12 407.89 400.6 407.89 401.2C407.89 401.8 407.41 402.28 406.81 402.28Z" fill="#A3923A"/>
<path d="M381.87 409.27C382.417 409.27 382.86 408.827 382.86 408.28C382.86 407.733 382.417 407.29 381.87 407.29C381.323 407.29 380.88 407.733 380.88 408.28C380.88 408.827 381.323 409.27 381.87 409.27Z" fill="#A3923A"/>
<path d="M356.05 411.54C356.541 411.54 356.94 411.142 356.94 410.65C356.94 410.158 356.541 409.76 356.05 409.76C355.558 409.76 355.16 410.158 355.16 410.65C355.16 411.142 355.558 411.54 356.05 411.54Z" fill="#A3923A"/>
<path d="M356.05 145.72C357.431 145.72 358.55 144.601 358.55 143.22C358.55 141.839 357.431 140.72 356.05 140.72C354.669 140.72 353.55 141.839 353.55 143.22C353.55 144.601 354.669 145.72 356.05 145.72Z" fill="#A3923A"/>
<path d="M380.83 147.91C379.57 147.91 378.56 146.89 378.56 145.64C378.56 144.38 379.58 143.37 380.83 143.37C382.08 143.37 383.1 144.39 383.1 145.64C383.11 146.89 382.09 147.91 380.83 147.91Z" fill="#A3923A"/>
<path d="M404.66 154.9C403.53 154.9 402.61 153.98 402.61 152.85C402.61 151.72 403.53 150.8 404.66 150.8C405.79 150.8 406.71 151.72 406.71 152.85C406.71 153.98 405.79 154.9 404.66 154.9Z" fill="#A3923A"/>
<path d="M426.6 166.42C427.605 166.42 428.42 165.605 428.42 164.6C428.42 163.595 427.605 162.78 426.6 162.78C425.595 162.78 424.78 163.595 424.78 164.6C424.78 165.605 425.595 166.42 426.6 166.42Z" fill="#A3923A"/>
<path d="M445.84 182C444.96 182 444.24 181.28 444.24 180.4C444.24 179.52 444.96 178.8 445.84 178.8C446.72 178.8 447.44 179.52 447.44 180.4C447.44 181.28 446.72 182 445.84 182Z" fill="#A3923A"/>
<path d="M461.64 201.01C460.88 201.01 460.27 200.4 460.27 199.64C460.27 198.88 460.88 198.27 461.64 198.27C462.4 198.27 463.01 198.88 463.01 199.64C463.01 200.4 462.4 201.01 461.64 201.01Z" fill="#A3923A"/>
<path d="M473.39 222.73C472.76 222.73 472.24 222.22 472.24 221.58C472.24 220.95 472.75 220.43 473.39 220.43C474.02 220.43 474.54 220.94 474.54 221.58C474.54 222.22 474.02 222.73 473.39 222.73Z" fill="#A3923A"/>
<path d="M480.61 246.33C480.1 246.33 479.69 245.92 479.69 245.41C479.69 244.9 480.1 244.49 480.61 244.49C481.12 244.49 481.53 244.9 481.53 245.41C481.53 245.92 481.12 246.33 480.61 246.33Z" fill="#A3923A"/>
<path d="M483.03 270.88C483.411 270.88 483.72 270.571 483.72 270.19C483.72 269.809 483.411 269.5 483.03 269.5C482.649 269.5 482.34 269.809 482.34 270.19C482.34 270.571 482.649 270.88 483.03 270.88Z" fill="#A3923A"/>
<path d="M241.92 331.36C184.84 331.36 138.4 284.92 138.4 227.83C138.4 170.74 184.84 124.31 241.92 124.31C299 124.31 345.45 170.75 345.45 227.83C345.45 284.91 299.01 331.36 241.92 331.36ZM241.92 126.31C185.94 126.31 140.4 171.85 140.4 227.83C140.4 283.81 185.94 329.36 241.92 329.36C297.9 329.36 343.45 283.82 343.45 227.83C343.45 171.85 297.9 126.31 241.92 126.31Z" fill="#FC2121"/>
<path d="M241.92 314.43C194.17 314.43 155.33 275.58 155.33 227.84C155.33 180.09 194.18 141.25 241.92 141.25C289.67 141.25 328.51 180.1 328.51 227.84C328.52 275.58 289.67 314.43 241.92 314.43ZM241.92 148.09C197.95 148.09 162.18 183.86 162.18 227.83C162.18 271.8 197.95 307.57 241.92 307.57C285.89 307.57 321.66 271.8 321.66 227.83C321.66 183.86 285.89 148.09 241.92 148.09Z" fill="#0D0B5E"/>
<path d="M241.92 297.49C203.51 297.49 172.26 266.24 172.26 227.83C172.26 189.42 203.51 158.17 241.92 158.17C280.33 158.17 311.58 189.42 311.58 227.83C311.58 266.24 280.33 297.49 241.92 297.49ZM241.92 160.17C204.61 160.17 174.26 190.52 174.26 227.83C174.26 265.14 204.61 295.49 241.92 295.49C279.23 295.49 309.58 265.14 309.58 227.83C309.58 190.52 279.23 160.17 241.92 160.17Z" fill="#FC2121"/>
<path d="M241.92 280.56C212.85 280.56 189.19 256.91 189.19 227.83C189.19 198.75 212.84 175.1 241.92 175.1C271 175.1 294.65 198.75 294.65 227.83C294.65 256.91 271 280.56 241.92 280.56ZM241.92 177.11C213.95 177.11 191.19 199.87 191.19 227.84C191.19 255.81 213.95 278.57 241.92 278.57C269.89 278.57 292.65 255.81 292.65 227.84C292.65 199.87 269.9 177.11 241.92 177.11Z" fill="#FC2121"/>
<path d="M241.92 263.63C222.18 263.63 206.13 247.57 206.13 227.83C206.13 208.09 222.19 192.04 241.92 192.04C261.66 192.04 277.72 208.1 277.72 227.83C277.72 247.57 261.66 263.63 241.92 263.63ZM241.92 194.04C223.29 194.04 208.13 209.2 208.13 227.83C208.13 246.46 223.29 261.63 241.92 261.63C260.55 261.63 275.72 246.47 275.72 227.83C275.72 209.19 260.56 194.04 241.92 194.04Z" fill="#FC2121"/>
<path d="M241.92 246.7C231.52 246.7 223.06 238.24 223.06 227.84C223.06 217.44 231.52 208.98 241.92 208.98C252.32 208.98 260.78 217.44 260.78 227.84C260.79 238.23 252.32 246.7 241.92 246.7ZM241.92 210.97C232.62 210.97 225.06 218.53 225.06 227.83C225.06 237.13 232.62 244.69 241.92 244.69C251.22 244.69 258.78 237.13 258.78 227.83C258.79 218.54 251.22 210.97 241.92 210.97Z" fill="#FC2121"/>
<path d="M381.02 420.76C451.353 420.76 508.37 363.743 508.37 293.41C508.37 223.077 451.353 166.06 381.02 166.06C310.686 166.06 253.67 223.077 253.67 293.41C253.67 363.743 310.686 420.76 381.02 420.76Z" fill="url(#paint1_radial)"/>
<path d="M353.15 389.19C418.872 389.19 472.15 335.912 472.15 270.19C472.15 204.468 418.872 151.19 353.15 151.19C287.428 151.19 234.15 204.468 234.15 270.19C234.15 335.912 287.428 389.19 353.15 389.19Z" fill="#FC2121"/>
<path d="M339.44 326.84L346.43 319.85L344.37 317.79L335.33 326.84L344.37 335.89L346.43 333.83L339.44 326.84Z" fill="white"/>
<path d="M351.64 326.84L358.63 319.85L356.57 317.79L347.52 326.84L356.57 335.89L358.63 333.83L351.64 326.84Z" fill="white"/>
<path d="M363.99 326.84L370.98 319.85L368.92 317.79L359.87 326.84L368.92 335.89L370.98 333.83L363.99 326.84Z" fill="white"/>
<path d="M366.86 225.05L359.87 232.04L361.93 234.09L370.98 225.05L361.93 216L359.87 218.06L366.86 225.05Z" fill="white"/>
<path d="M354.66 225.05L347.67 232.04L349.73 234.09L358.78 225.05L349.73 216L347.67 218.06L354.66 225.05Z" fill="white"/>
<path d="M342.32 225.05L335.33 232.04L337.38 234.09L346.43 225.05L337.38 216L335.33 218.06L342.32 225.05Z" fill="white"/>
<path d="M549.822 366.608C573.585 342.845 573.585 304.317 549.822 280.554C526.059 256.791 487.531 256.791 463.768 280.554C440.005 304.317 440.005 342.845 463.768 366.608C487.531 390.371 526.059 390.372 549.822 366.608Z" fill="#0D0B5E"/>
<path d="M516.09 345.695C528.294 340.552 534.019 326.49 528.876 314.286C523.734 302.082 509.672 296.357 497.467 301.5C485.263 306.642 479.539 320.705 484.681 332.909C489.824 345.113 503.886 350.838 516.09 345.695Z" fill="#FC2121"/>
<path d="M684.63 259.74L700.38 243.99C697.58 245.59 694.99 247.5 692.64 249.67L690.31 252C688.14 254.34 686.23 256.94 684.63 259.74Z" fill="#0D0B5E"/>
<path d="M679.93 272.26L712.9 239.29C711.99 239.47 711.09 239.69 710.2 239.93L680.57 269.56C680.32 270.45 680.11 271.35 679.93 272.26Z" fill="#0D0B5E"/>
<path d="M679.09 280.64C679.09 280.73 679.09 280.82 679.09 280.91L721.54 238.46C721.45 238.46 721.36 238.46 721.27 238.46C720.66 238.46 720.05 238.48 719.44 238.5L679.13 278.81C679.11 279.42 679.09 280.02 679.09 280.64Z" fill="#0D0B5E"/>
<path d="M679.75 288.07L728.72 239.1C728.13 239 727.53 238.9 726.94 238.82L679.48 286.28C679.55 286.89 679.64 287.48 679.75 288.07Z" fill="#0D0B5E"/>
<path d="M681.35 294.29L734.93 240.71C734.41 240.53 733.89 240.37 733.37 240.21L680.86 292.72C681.01 293.25 681.17 293.77 681.35 294.29Z" fill="#0D0B5E"/>
<path d="M683.68 299.78L740.43 243.03C739.97 242.8 739.51 242.57 739.04 242.36L683 298.39C683.22 298.86 683.44 299.32 683.68 299.78Z" fill="#0D0B5E"/>
<path d="M686.6 304.67L745.31 245.96C744.9 245.68 744.49 245.4 744.08 245.13L685.78 303.43C686.05 303.85 686.32 304.26 686.6 304.67Z" fill="#0D0B5E"/>
<path d="M690.07 309.02L749.66 249.43C749.3 249.1 748.93 248.78 748.56 248.47L689.1 307.93C689.42 308.3 689.74 308.66 690.07 309.02Z" fill="#0D0B5E"/>
<path d="M694.05 312.86L753.5 253.41C753.19 253.04 752.87 252.67 752.54 252.31L692.95 311.9C693.31 312.23 693.68 312.55 694.05 312.86Z" fill="#0D0B5E"/>
<path d="M698.55 316.18L756.83 257.9C756.56 257.48 756.29 257.07 756 256.67L697.31 315.36C697.72 315.64 698.13 315.92 698.55 316.18Z" fill="#0D0B5E"/>
<path d="M703.6 318.95L759.59 262.96C759.37 262.49 759.15 262.03 758.92 261.57L702.21 318.28C702.67 318.51 703.13 318.73 703.6 318.95Z" fill="#0D0B5E"/>
<path d="M709.28 321.09L761.74 268.64C761.58 268.11 761.42 267.59 761.25 267.08L707.72 320.61C708.23 320.77 708.75 320.93 709.28 321.09Z" fill="#0D0B5E"/>
<path d="M715.72 322.46L763.1 275.08C763.02 274.48 762.93 273.89 762.83 273.29L713.94 322.18C714.53 322.29 715.12 322.38 715.72 322.46Z" fill="#0D0B5E"/>
<path d="M721.28 322.83C721.93 322.83 722.58 322.81 723.22 322.78L763.42 282.58C763.45 281.94 763.47 281.29 763.47 280.64C763.47 280.59 763.47 280.53 763.47 280.48L721.13 322.82C721.17 322.82 721.23 322.83 721.28 322.83Z" fill="#0D0B5E"/>
<path d="M732.51 321.31L761.95 291.87C762.2 290.98 762.42 290.07 762.6 289.16L729.79 321.97C730.71 321.78 731.62 321.56 732.51 321.31Z" fill="#0D0B5E"/>
<path d="M757.78 301.8L742.44 317.14C748.79 313.45 754.09 308.15 757.78 301.8Z" fill="#0D0B5E"/>
<path d="M204.14 491.42L220.7 474.86C217.76 476.54 215.03 478.55 212.56 480.83L210.11 483.28C207.83 485.76 205.82 488.48 204.14 491.42Z" fill="#FC2121"/>
<path d="M199.2 504.58L233.86 469.92C232.9 470.11 231.96 470.34 231.02 470.59L199.87 501.74C199.61 502.68 199.39 503.63 199.2 504.58Z" fill="#FC2121"/>
<path d="M198.32 513.39C198.32 513.48 198.32 513.58 198.32 513.67L242.94 469.05C242.85 469.05 242.75 469.05 242.66 469.05C242.02 469.05 241.37 469.07 240.74 469.09L198.36 511.47C198.34 512.11 198.32 512.75 198.32 513.39Z" fill="#FC2121"/>
<path d="M199.01 521.21L250.48 469.74C249.86 469.63 249.23 469.53 248.61 469.45L198.72 519.34C198.8 519.96 198.9 520.59 199.01 521.21Z" fill="#FC2121"/>
<path d="M200.69 527.74L257.01 471.42C256.47 471.23 255.92 471.06 255.37 470.9L200.17 526.1C200.33 526.65 200.51 527.2 200.69 527.74Z" fill="#FC2121"/>
<path d="M203.14 533.51L262.79 473.86C262.31 473.61 261.82 473.38 261.33 473.15L202.43 532.05C202.66 532.55 202.89 533.03 203.14 533.51Z" fill="#FC2121"/>
<path d="M206.22 538.65L267.93 476.94C267.5 476.64 267.07 476.35 266.63 476.07L205.35 537.35C205.63 537.8 205.92 538.23 206.22 538.65Z" fill="#FC2121"/>
<path d="M209.86 543.23L272.5 480.59C272.12 480.25 271.74 479.91 271.35 479.58L208.85 542.08C209.18 542.47 209.51 542.85 209.86 543.23Z" fill="#FC2121"/>
<path d="M214.04 547.26L276.53 484.77C276.2 484.38 275.86 483.99 275.52 483.61L212.88 546.25C213.27 546.6 213.65 546.93 214.04 547.26Z" fill="#FC2121"/>
<path d="M218.77 550.76L280.03 489.5C279.75 489.06 279.46 488.63 279.16 488.2L217.47 549.89C217.9 550.18 218.33 550.47 218.77 550.76Z" fill="#FC2121"/>
<path d="M224.08 553.66L282.93 494.81C282.7 494.32 282.47 493.83 282.22 493.35L222.61 552.96C223.1 553.2 223.59 553.44 224.08 553.66Z" fill="#FC2121"/>
<path d="M230.05 555.91L285.19 500.77C285.03 500.22 284.85 499.67 284.67 499.13L228.41 555.39C228.94 555.58 229.49 555.75 230.05 555.91Z" fill="#FC2121"/>
<path d="M236.82 557.35L286.62 507.55C286.54 506.92 286.44 506.29 286.33 505.67L234.94 557.06C235.57 557.18 236.19 557.27 236.82 557.35Z" fill="#FC2121"/>
<path d="M242.66 557.74C243.35 557.74 244.03 557.72 244.7 557.69L286.95 515.44C286.98 514.76 287 514.08 287 513.4C287 513.34 287 513.29 287 513.23L242.49 557.74C242.55 557.74 242.61 557.74 242.66 557.74Z" fill="#FC2121"/>
<path d="M254.47 556.15L285.42 525.2C285.68 524.26 285.91 523.31 286.11 522.35L251.62 556.84C252.58 556.64 253.53 556.4 254.47 556.15Z" fill="#FC2121"/>
<path d="M281.03 535.64L264.9 551.77C271.58 547.88 277.15 542.31 281.03 535.64Z" fill="#FC2121"/>
<path d="M329.17 30.17L345.73 13.61C342.79 15.29 340.06 17.3 337.59 19.58L335.14 22.03C332.86 24.5 330.85 27.23 329.17 30.17Z" fill="#FC2121"/>
<path d="M324.23 43.33L358.89 8.66998C357.93 8.85998 356.99 9.08998 356.05 9.33998L324.9 40.49C324.65 41.43 324.42 42.37 324.23 43.33Z" fill="#FC2121"/>
<path d="M323.35 52.14C323.35 52.23 323.35 52.33 323.35 52.42L367.98 7.79999C367.89 7.79999 367.79 7.79999 367.7 7.79999C367.05 7.79999 366.41 7.81999 365.78 7.83999L323.4 50.22C323.37 50.86 323.35 51.5 323.35 52.14Z" fill="#FC2121"/>
<path d="M324.04 59.96L375.51 8.48998C374.89 8.37998 374.26 8.27998 373.64 8.19998L323.75 58.09C323.83 58.71 323.93 59.34 324.04 59.96Z" fill="#FC2121"/>
<path d="M325.72 66.49L382.04 10.17C381.5 9.97999 380.95 9.80999 380.4 9.64999L325.2 64.85C325.37 65.4 325.54 65.95 325.72 66.49Z" fill="#FC2121"/>
<path d="M328.17 72.26L387.82 12.61C387.34 12.37 386.85 12.13 386.36 11.9L327.46 70.8C327.69 71.29 327.92 71.78 328.17 72.26Z" fill="#FC2121"/>
<path d="M331.25 77.4L392.96 15.69C392.53 15.39 392.1 15.1 391.66 14.82L330.38 76.1C330.66 76.54 330.95 76.97 331.25 77.4Z" fill="#FC2121"/>
<path d="M334.89 81.98L397.53 19.34C397.15 19 396.77 18.66 396.38 18.33L333.88 80.83C334.21 81.21 334.55 81.6 334.89 81.98Z" fill="#FC2121"/>
<path d="M339.08 86.01L401.57 23.52C401.24 23.13 400.9 22.74 400.56 22.36L337.92 85C338.3 85.34 338.68 85.68 339.08 86.01Z" fill="#FC2121"/>
<path d="M343.8 89.5L405.06 28.24C404.78 27.8 404.49 27.37 404.19 26.94L342.5 88.64C342.93 88.93 343.36 89.22 343.8 89.5Z" fill="#FC2121"/>
<path d="M349.11 92.41L407.96 33.56C407.73 33.07 407.5 32.58 407.25 32.1L347.64 91.71C348.13 91.95 348.62 92.18 349.11 92.41Z" fill="#FC2121"/>
<path d="M355.08 94.66L410.22 39.52C410.06 38.97 409.88 38.42 409.7 37.88L353.44 94.14C353.98 94.33 354.53 94.5 355.08 94.66Z" fill="#FC2121"/>
<path d="M361.86 96.1L411.66 46.3C411.58 45.67 411.48 45.04 411.37 44.42L359.98 95.81C360.6 95.92 361.23 96.02 361.86 96.1Z" fill="#FC2121"/>
<path d="M367.7 96.49C368.39 96.49 369.07 96.47 369.74 96.44L411.99 54.19C412.02 53.51 412.04 52.83 412.04 52.15C412.04 52.09 412.04 52.04 412.04 51.98L367.53 96.49C367.58 96.48 367.64 96.49 367.7 96.49Z" fill="#FC2121"/>
<path d="M379.5 94.89L410.45 63.94C410.71 63 410.94 62.05 411.14 61.09L376.65 95.58C377.61 95.38 378.56 95.15 379.5 94.89Z" fill="#FC2121"/>
<path d="M406.06 74.38L389.93 90.51C396.61 86.63 402.18 81.06 406.06 74.38Z" fill="#FC2121"/>
<path d="M226.16 0V38.93H265.09V0H226.16ZM259.67 33.51H231.58V5.42H259.67V33.51Z" fill="#0D0B5E"/>
<path d="M125.69 42.02L125.67 61.16L142.25 51.6L125.69 42.02Z" fill="#A3923A"/>
<path d="M148.66 31.38L148.63 71.82L183.67 51.63L148.66 31.38ZM154.13 40.88L172.7 51.62L154.12 62.33L154.13 40.88Z" fill="#FC2121"/>
<path d="M223.79 447.56L270.83 447.6L247.34 406.85L223.79 447.56ZM234.84 441.19L247.33 419.6L259.79 441.21L234.84 441.19Z" fill="#FC2121"/>
<path d="M312.58 478.05C312.58 455.64 330.74 437.48 353.15 437.48C375.56 437.48 393.72 455.64 393.72 478.05H312.58Z" fill="#A3923A"/>
<path d="M118.12 166.79H31.48L74.8 123.47L118.12 166.79Z" fill="#A3923A"/>
<path d="M63.38 520.19C63.38 473.04 25.16 434.81 -22 434.81V468.33C6.64 468.33 29.86 491.55 29.86 520.19H63.38Z" fill="#0D0B5E"/>
<path d="M728.15 20.19H674.34V74.08H728.15V20.19Z" fill="#0D0B5E"/>
<path d="M712.83 35.53H689.66V58.73H712.83V35.53Z" fill="#A3923A"/>
</g>
<defs>
<radialGradient id="paint0_radial" cx="0" cy="0" r="1" gradientUnits="userSpaceOnUse" gradientTransform="translate(398.939 295.403) scale(200.05)">
<stop/>
<stop offset="1" stop-color="white"/>
</radialGradient>
<radialGradient id="paint1_radial" cx="0" cy="0" r="1" gradientUnits="userSpaceOnUse" gradientTransform="translate(381.022 293.413) scale(127.353)">
<stop/>
<stop offset="1" stop-color="white"/>
</radialGradient>
<clipPath id="clip0">
<rect width="785.47" height="557.74" fill="white"/>
</clipPath>
</defs>
</svg>
